<svg width="144" height="144" viewBox="0 0 144 144" fill="none" xmlns="http://www.w3.org/2000/svg">
<circle cx="72" cy="72" r="72" fill="#F6F6EF"/>
<g clip-path="url(#clip0_15_49)">
<path d="M82.13 55.76L75.46 54.79L72.48 48.74C72.11 47.99 71.03 47.99 70.66 48.74L67.68 54.79L61.01 55.76C60.18 55.88 59.85 56.9 60.45 57.49L65.28 62.2L64.14 68.85C64 69.68 64.87 70.31 65.61 69.92L71.58 66.78L77.55 69.92C78.29 70.31 79.16 69.68 79.02 68.85L77.88 62.2L82.71 57.49C83.31 56.9 82.98 55.88 82.15 55.76H82.13Z" fill="#333333"/>
<path d="M86.65 77.01C84.64 77.01 83.01 78.64 83.01 80.65C83.01 82.66 84.64 84.29 86.65 84.29C88.66 84.29 90.29 82.66 90.29 80.65C90.29 78.64 88.66 77.01 86.65 77.01Z" fill="#333333"/>
<path d="M109.93 111.76H105.62V40.9C105.62 33.24 99.38 27 91.72 27H51.41C43.75 27 37.51 33.24 37.51 40.9V111.76H33.2C31.98 111.76 31 112.74 31 113.96C31 115.18 31.98 116.16 33.2 116.16H109.93C111.15 116.16 112.13 115.18 112.13 113.96C112.13 112.74 111.15 111.76 109.93 111.76ZM41.51 40.9C41.51 35.44 45.95 31 51.41 31H91.71C97.17 31 101.61 35.44 101.61 40.9V111.76H97.61V40.9C97.61 37.6 94.91 35 91.71 35H51.41C48.11 35 45.51 37.7 45.51 40.9V111.76H41.51V40.9ZM93.51 111.76H49.61V40.6C49.61 39.6 50.41 38.8 51.41 38.8H91.71C92.71 38.8 93.51 39.6 93.51 40.6V111.76Z" fill="#333333"/>
</g>
<defs>
<clipPath id="clip0_15_49">
<rect width="81.13" height="89.16" fill="white" transform="translate(31 27)"/>
</clipPath>
</defs>
</svg>
