<svg width="144" height="144" viewBox="0 0 144 144" fill="none" xmlns="http://www.w3.org/2000/svg">
<circle cx="72" cy="72" r="72" fill="#F6F6EF"/>
<g clip-path="url(#clip0_15_53)">
<path d="M45.1 105.5C40.6 105.5 37 101.9 37 97.4V67.2C37 62.7 40.6 59.1 45.1 59.1H50C52.4 59.1 54.7 58.1 56.4 56.3L57.8 54.8C59.4 53 61.7 52 64.2 52H80.1C82.4 52 84.6 52.9 86.2 54.5L88.3 56.6C89.9 58.2 92.1 59.1 94.4 59.1H99.2C103.7 59.1 107.3 62.7 107.3 67.2V97.4C107.3 101.9 103.7 105.5 99.2 105.5H45.1ZM45.1 63.1C42.8 63.1 41 65 41 67.2V97.4C41 99.7 42.9 101.5 45.1 101.5H99.1C101.4 101.5 103.2 99.6 103.2 97.4V67.2C103.2 64.9 101.3 63.1 99.1 63.1H94.3C91 63.1 87.8 61.8 85.4 59.4L83.3 57.3C82.4 56.4 81.3 55.9 80 55.9H64.2C62.9 55.9 61.6 56.5 60.8 57.4L59.4 58.9C57 61.5 53.6 63 50.1 63H45.1V63.1ZM60.6 70C66.9 63.7 77.3 63.7 83.6 70C89.9 76.3 89.9 86.7 83.6 93C77.3 99.3 66.9 99.3 60.6 93C54.3 86.6 54.3 76.3 60.6 70ZM69.1 75C69.2 75.5 69.4 76 69.8 76.3C70.2 76.6 70.7 76.8 71.2 76.7C72.7 76.6 74.3 77.2 75.5 78.4C76.5 79.5 77 80.8 76.9 82.1C76.8 82.6 77 83.1 77.3 83.6C77.6 84 78.1 84.3 78.6 84.4C79.2 84.5 79.8 84.3 80.3 83.8C80.6 83.5 80.8 83.1 80.9 82.7C81.2 80.2 80.4 77.7 78.5 75.8C76.5 73.7 73.7 72.6 71 72.9C70.5 72.9 70.1 73.1 69.8 73.5C69.3 73.8 69.1 74.4 69.1 75ZM74.1 41.3V31C74.1 29.9 73.2 29 72.1 29C71 29 70.1 29.9 70.1 31V41.3C70.1 42.4 71 43.3 72.1 43.3C73.2 43.3 74.1 42.4 74.1 41.3ZM90.7 49.1L98 41.8C98.8 41 98.8 39.7 98 39C97.6 38.6 97.1 38.4 96.6 38.4C96.1 38.4 95.6 38.6 95.2 39L87.9 46.3C87.5 46.7 87.3 47.2 87.3 47.7C87.3 48.2 87.5 48.7 87.9 49.1C88.3 49.5 88.8 49.7 89.3 49.7C89.8 49.7 90.3 49.5 90.7 49.1ZM56.3 49.1C57.1 48.3 57.1 47 56.3 46.3L49 39C48.6 38.6 48.1 38.4 47.6 38.4C47.1 38.4 46.6 38.6 46.2 39C45.4 39.8 45.4 41.1 46.2 41.8L53.5 49.1C53.9 49.5 54.4 49.7 54.9 49.7C55.5 49.7 56 49.5 56.3 49.1Z" fill="#333333"/>
</g>
<defs>
<clipPath id="clip0_15_53">
<rect width="70.3" height="76.5" fill="white" transform="translate(37 29)"/>
</clipPath>
</defs>
</svg>
