<svg width="144" height="144" viewBox="0 0 144 144" fill="none" xmlns="http://www.w3.org/2000/svg">
<circle cx="72" cy="72" r="72" fill="#F6F6EF"/>
<g clip-path="url(#clip0_15_45)">
<path d="M34.82 91.33C35.42 91.93 36.42 92.03 37.22 91.43C41.52 88.23 47.62 88.53 51.62 92.43C55.52 96.33 55.92 102.43 52.62 106.83C52.12 107.53 52.12 108.53 52.72 109.23L58.02 114.53C58.72 115.23 59.82 115.23 60.52 114.53L96.72 78.33L92.52 74.13C91.72 73.33 91.72 72.13 92.52 71.33C93.32 70.53 94.52 70.53 95.32 71.33L99.52 75.53L114.52 60.53C115.22 59.83 115.22 58.73 114.52 58.03L109.22 52.73C108.62 52.13 107.62 52.03 106.82 52.63C102.52 55.83 96.42 55.53 92.42 51.63C88.52 47.73 88.12 41.63 91.42 37.23C91.92 36.53 91.92 35.53 91.32 34.83L86.03 29.52C85.33 28.82 84.23 28.82 83.53 29.52L68.53 44.52L72.73 48.72C73.53 49.52 73.53 50.72 72.73 51.52C71.93 52.32 70.73 52.32 69.93 51.52L65.73 47.32L29.53 83.52C28.83 84.22 28.83 85.32 29.53 86.02L34.83 91.32L34.82 91.33ZM58.02 68.43L65.72 71.73L72.12 66.03C72.62 65.63 73.32 66.03 73.22 66.63L72.32 75.03L79.52 79.23C80.02 79.53 79.92 80.33 79.32 80.43L71.02 82.33L69.12 90.63C69.02 91.23 68.22 91.33 67.92 90.83L63.72 83.63L55.32 84.53C54.72 84.63 54.32 83.93 54.72 83.43L60.42 77.03L57.12 69.33C56.92 68.73 57.52 68.13 58.02 68.43ZM75.62 54.33C76.42 53.53 77.62 53.53 78.42 54.33L81.22 57.13C82.02 57.93 82.02 59.13 81.22 59.93C80.42 60.73 79.22 60.73 78.42 59.93L75.62 57.13C74.82 56.33 74.82 55.13 75.62 54.33ZM84.12 62.83C84.92 62.03 86.12 62.03 86.92 62.83L89.72 65.63C90.52 66.43 90.52 67.63 89.72 68.43C88.92 69.23 87.72 69.23 86.92 68.43L84.12 65.63C83.32 64.83 83.32 63.53 84.12 62.83Z" fill="#333333"/>
</g>
<defs>
<clipPath id="clip0_15_45">
<rect width="86.05" height="86.05" fill="white" transform="translate(29 29)"/>
</clipPath>
</defs>
</svg>
