<svg width="144" height="144" viewBox="0 0 144 144" fill="none" xmlns="http://www.w3.org/2000/svg">
<circle cx="72" cy="72" r="72" fill="#F6F6EF"/>
<g clip-path="url(#clip0_15_48)">
<path d="M47.25 112.3V75.1L44.55 78C43.85 78.8 42.55 78.9 41.75 78.2C41.6833 78.1333 41.6167 78.0667 41.55 78L31.55 67.1C30.75 66.3 30.85 65 31.65 64.3L48.05 49L56.35 47.3L59.05 52.1C63.15 59.5 72.55 62.1 79.85 58C82.35 56.6 84.35 54.6 85.75 52.1L88.35 47.3L96.65 49L113.15 64.3C113.95 65 114.05 66.3 113.35 67.1L113.25 67.2L103.35 78.1C102.65 78.9 101.35 79 100.55 78.3C100.483 78.2333 100.417 78.1667 100.35 78.1L97.65 75.2V112.4C97.65 113.5 96.75 114.4 95.65 114.4H49.25C48.15 114.4 47.25 113.5 47.25 112.3C47.25 112.367 47.25 112.367 47.25 112.3ZM66.25 34.1C67.15 34 67.85 33.2 67.85 32.2C67.85 29.7 69.95 27.6 72.55 27.7C75.05 27.7 77.15 29.8 77.05 32.4C77.05 34.9 74.95 36.9 72.45 36.9C71.45 36.9 70.65 37.7 70.65 38.7V43.7L62.35 45.8C61.85 45.9 61.45 46.5 61.65 47C61.65 47.1 61.75 47.2 61.75 47.2L62.55 48.6C62.75 49 63.25 49.2 63.65 49.1L72.45 46.9L81.25 49.1C81.65 49.2 82.15 49 82.35 48.6L83.15 47.2C83.45 46.7 83.25 46.1 82.85 45.8C82.75 45.7 82.65 45.7 82.55 45.7L74.25 43.6V40.2C78.65 39.2 81.45 34.8 80.45 30.4C79.45 26 75.05 23.2 70.65 24.2C66.85 25 64.25 28.4 64.25 32.2C64.25 33.2 65.05 34 66.05 34C66.15 34.1 66.25 34.1 66.25 34.1Z" fill="#333333"/>
</g>
<defs>
<clipPath id="clip0_15_48">
<rect width="82.82" height="90.4" fill="white" transform="translate(31 24)"/>
</clipPath>
</defs>
</svg>
