<svg width="587" height="105" viewBox="0 0 587 105" fill="none" xmlns="http://www.w3.org/2000/svg">
<path d="M0 0H41.2368V104.864H0V0ZM587 0V105H122.341L95.643 57.3619H91.8818V104.864H51.7701V0H98.8986L124.596 47.3617H125.618V0H586.995H587ZM213.576 68.7823C213.576 48.3427 193.357 47.2316 178.051 44.6407L169.795 43.161C163.115 42.0499 160.985 39.2747 160.985 36.2232C160.985 31.8762 165.159 29.0089 174.339 29.0089C184.818 29.0089 189.547 32.7109 190.568 38.5376H211.342C211.619 17.2633 196.504 10.7916 174.893 10.7916C151.06 10.7916 138.63 19.9463 138.63 35.1174C138.63 53.9851 155.327 56.4838 170.072 58.9826L179.905 60.5544C188.068 61.8498 190.476 64.4407 190.476 67.8608C190.476 72.3 185.28 75.5358 174.709 75.4437C163.023 75.3515 158.012 71.6495 157.642 65.7307H136.684C136.222 85.2434 148.832 93.5688 174.709 93.661C200.586 93.7531 213.57 85.1513 213.57 68.7823H213.576ZM243.708 13.3825H220.429V91.0701H243.708V13.377V13.3825ZM333.34 52.229C333.34 29.9412 322.024 13.3825 290.864 13.3825H252.839V91.0701H290.864C322.024 91.0701 333.34 74.4247 333.34 52.2236V52.229ZM408.759 13.377H340.128V91.0701H408.759V72.2946H363.407V59.9907H407.09V44.3589H363.407V32.055H408.759V13.377ZM496.656 91.0701L482.373 65.1724C489.422 60.6411 494.336 53.0583 494.336 42.4184C494.336 22.8082 482.557 13.377 461.132 13.377H417.819V91.0701H441.098V69.9801H462.431L473.747 91.0701H496.656V91.0701ZM575.863 68.7823C575.863 48.3427 555.644 47.2316 540.339 44.6407L532.083 43.161C525.403 42.0499 523.272 39.2747 523.272 36.2232C523.272 31.8762 527.447 29.0089 536.627 29.0089C547.106 29.0089 551.84 32.7109 552.856 38.5376H573.629C573.907 17.2633 558.791 10.7916 537.181 10.7916C513.348 10.7916 500.918 19.9463 500.918 35.1174C500.918 53.9851 517.614 56.4838 532.36 58.9826L542.192 60.5544C550.356 61.8498 552.764 64.4407 552.764 67.8608C552.764 72.3 547.568 75.5358 536.996 75.4437C525.311 75.3515 520.305 71.6495 519.93 65.7307H498.972C498.51 85.2434 511.119 93.5688 536.996 93.661C562.873 93.7531 575.858 85.1513 575.858 68.7823H575.863ZM290.766 32.8952H276.205V71.5574H290.766C302.544 71.5574 309.963 65.4543 309.963 52.229C309.963 39.0037 302.544 32.9006 290.766 32.9006V32.8952ZM459.648 32.7109H441.098V52.5054H459.648C467.067 52.5054 471.057 48.9931 471.057 42.6081C471.057 36.2232 467.067 32.7109 459.648 32.7109Z" fill="#F6F6EF"/>
</svg>
