<svg width="144" height="144" viewBox="0 0 144 144" fill="none" xmlns="http://www.w3.org/2000/svg">
<circle cx="72" cy="72" r="72" fill="#F6F6EF"/>
<g clip-path="url(#clip0_15_51)">
<path d="M46.09 58.95L45.05 64.99C44.92 65.74 45.71 66.32 46.39 65.96L51.82 63.11L57.25 65.96C57.93 66.32 58.72 65.74 58.59 64.99L57.55 58.95L61.94 54.67C62.49 54.14 62.19 53.21 61.43 53.1L55.36 52.22L52.65 46.72C52.31 46.03 51.33 46.03 51 46.72L48.29 52.22L42.22 53.1C41.46 53.21 41.16 54.14 41.71 54.67L46.1 58.95H46.09Z" fill="#333333"/>
<path d="M87.08 58.95L86.04 64.99C85.91 65.74 86.7 66.32 87.38 65.96L92.81 63.11L98.24 65.96C98.92 66.32 99.71 65.74 99.58 64.99L98.54 58.95L102.93 54.67C103.48 54.14 103.18 53.21 102.42 53.1L96.35 52.22L93.64 46.72C93.3 46.03 92.32 46.03 91.99 46.72L89.28 52.22L83.21 53.1C82.45 53.21 82.15 54.14 82.7 54.67L87.09 58.95H87.08Z" fill="#333333"/>
<path d="M126.62 60.53H115.2V43.04C115.2 38.61 111.59 35 107.16 35H78.44C75.98 35 73.78 36.11 72.31 37.85C70.83 36.11 68.63 35 66.18 35H37.46C33.03 35 29.42 38.61 29.42 43.04V60.53H18C16.9 60.53 16 61.43 16 62.53V71.73C16 72.83 16.9 73.73 18 73.73H22.34V95.68C22.34 96.78 23.24 97.68 24.34 97.68H25.67V105.45H24.09C22.99 105.45 22.09 106.35 22.09 107.45C22.09 108.55 22.99 109.45 24.09 109.45H31.25C32.35 109.45 33.25 108.55 33.25 107.45C33.25 106.35 32.35 105.45 31.25 105.45H29.67V97.68H31C32.1 97.68 33 96.78 33 95.68V94.05H66.89V95.68C66.89 96.78 67.79 97.68 68.89 97.68H70.22V105.45H68.64C67.54 105.45 66.64 106.35 66.64 107.45C66.64 108.55 67.54 109.45 68.64 109.45H75.8C76.9 109.45 77.8 108.55 77.8 107.45C77.8 106.35 76.9 105.45 75.8 105.45H74.22V97.68H75.55C76.65 97.68 77.55 96.78 77.55 95.68V94.05H111.47V95.68C111.47 96.78 112.37 97.68 113.47 97.68H114.8V105.45H113.22C112.12 105.45 111.22 106.35 111.22 107.45C111.22 108.55 112.12 109.45 113.22 109.45H120.38C121.48 109.45 122.38 108.55 122.38 107.45C122.38 106.35 121.48 105.45 120.38 105.45H118.8V97.68H120.13C121.23 97.68 122.13 96.78 122.13 95.68V73.73H126.64C127.74 73.73 128.64 72.83 128.64 71.73V62.53C128.64 61.43 127.74 60.53 126.64 60.53H126.62ZM78.44 39H107.16C109.39 39 111.2 40.81 111.2 43.04V75.8H77.54V73.73H78.92C80.02 73.73 80.92 72.83 80.92 71.73V62.53C80.92 61.43 80.02 60.53 78.92 60.53H74.4V43.04C74.4 40.81 76.21 39 78.44 39ZM33.42 43.04C33.42 40.81 35.23 39 37.46 39H66.18C68.41 39 70.22 40.81 70.22 43.04V60.53H65.51C64.41 60.53 63.51 61.43 63.51 62.53V71.73C63.51 72.83 64.41 73.73 65.51 73.73H66.89V75.8H33.42V43.04ZM33.42 90.05V81.09C33.42 80.38 34 79.8 34.71 79.8H66.89V90.05H33.42ZM111.21 90.05H77.54V79.8H109.91C110.62 79.8 111.2 80.38 111.2 81.09V90.05H111.21Z" fill="#333333"/>
</g>
<defs>
<clipPath id="clip0_15_51">
<rect width="112.62" height="74.45" fill="white" transform="translate(16 35)"/>
</clipPath>
</defs>
</svg>
