<svg width="144" height="144" viewBox="0 0 144 144" fill="none" xmlns="http://www.w3.org/2000/svg">
<circle cx="72" cy="72" r="72" fill="#F6F6EF"/>
<g clip-path="url(#clip0_15_50)">
<path d="M104.96 44.09C102.36 44.49 99.96 46.19 98.96 48.59C97.56 51.89 98.46 55.49 100.86 57.69C99.76 62.19 88.26 66.99 72.06 66.99C55.86 66.99 44.06 62.09 43.26 57.49C46.36 54.49 46.46 49.39 43.36 46.29C40.46 43.39 35.46 43.29 32.46 46.09C29.26 49.09 29.16 54.09 32.26 57.29C32.36 57.49 32.56 57.59 32.76 57.69V98.99C32.76 99.59 33.26 100.09 33.86 100.09H41.86C42.56 100.09 43.06 99.59 43.06 98.89V62.79C48.16 67.29 58.96 70.29 72.16 70.29C85.36 70.29 95.86 67.39 100.96 63.09V98.99C100.96 99.69 101.46 100.19 102.16 100.19H110.16C110.76 100.19 111.26 99.69 111.26 99.09V57.79C112.96 56.29 113.96 54.19 113.96 51.89C113.96 47.09 109.86 43.39 104.96 44.09ZM40.36 55.59C40.06 55.79 39.86 55.89 39.66 55.99L39.36 56.09L38.96 56.19L38.46 56.29H37.06L36.56 56.19L36.16 56.09L35.86 55.99L35.26 55.69H35.16C33.06 54.29 32.56 51.49 33.96 49.39C34.76 48.19 36.16 47.39 37.76 47.39V47.29C40.26 47.29 42.26 49.29 42.26 51.79C42.36 53.29 41.66 54.79 40.36 55.59ZM108.66 55.59C108.36 55.69 108.16 55.79 107.96 55.89L107.56 55.99L107.26 56.09L106.76 56.19H105.36L104.86 56.09L104.56 55.99L104.26 55.89C104.06 55.79 103.86 55.69 103.66 55.59L103.56 55.49C101.46 54.09 100.96 51.29 102.36 49.19C103.16 47.99 104.56 47.19 106.16 47.19C108.66 47.19 110.66 49.19 110.66 51.69C110.66 53.29 109.86 54.79 108.66 55.59Z" fill="#333333"/>
</g>
<defs>
<clipPath id="clip0_15_50">
<rect width="83.96" height="56.19" fill="white" transform="translate(30 44)"/>
</clipPath>
</defs>
</svg>
